<svg width="32" height="31" viewBox="0 0 32 31" fill="none" xmlns="http://www.w3.org/2000/svg">
<path d="M29.1242 23.4406C28.0554 22.3637 25.4669 20.7921 24.211 20.1588C22.5755 19.335 22.4409 19.2677 21.1553 20.2227C20.2979 20.8601 19.7278 21.4295 18.7243 21.2155C17.7208 21.0015 15.5401 19.7947 13.6307 17.8913C11.7212 15.9879 10.4444 13.744 10.2297 12.7438C10.015 11.7437 10.5939 11.1803 11.2252 10.3209C12.115 9.10937 12.0476 8.90745 11.2871 7.27195C10.6941 5.99988 9.07681 3.43557 7.9959 2.37216C6.8396 1.22999 6.8396 1.43191 6.09454 1.74151C5.48794 1.99667 4.90601 2.3069 4.35605 2.6683C3.27918 3.38375 2.68151 3.97805 2.26355 4.87118C1.84558 5.76432 1.6578 7.85817 3.81627 11.7793C5.97473 15.7005 7.48909 17.7055 10.6235 20.8312C13.7579 23.9568 16.168 25.6374 19.6915 27.6135C24.0501 30.0546 25.722 29.5788 26.6178 29.1615C27.5136 28.7442 28.1106 28.1519 28.8274 27.075C29.1897 26.526 29.5006 25.9447 29.7562 25.3386C30.0665 24.5962 30.2684 24.5962 29.1242 23.4406Z" stroke="#91A7B0" stroke-width="3" stroke-miterlimit="10"/>
</svg>
